<svg xmlns="http://www.w3.org/2000/svg" width="16" height="18" viewBox="0 0 16 18" fill="none"><path fill-rule="evenodd" clip-rule="evenodd" d="M3.5 4.42976C3.5 1.98327 5.40279 0 7.75 0C10.0972 0 12 1.98327 12 4.42976C12 6.87625 10.0972 8.85952 7.75 8.85952C5.40279 8.85952 3.5 6.87625 3.5 4.42976ZM7.75 1.56345C6.23122 1.56345 5 2.84674 5 4.42976C5 6.01279 6.23122 7.29608 7.75 7.29608C9.26878 7.29608 10.5 6.01279 10.5 4.42976C10.5 2.84674 9.26878 1.56345 7.75 1.56345Z" fill="#4950A2"></path><path fill-rule="evenodd" clip-rule="evenodd" d="M3.75 11.9864C2.50736 11.9864 1.5 13.0364 1.5 14.3316V15.5701C1.5 15.589 1.51311 15.6051 1.53097 15.6081C5.64972 16.309 9.85028 16.309 13.969 15.6081C13.9869 15.6051 14 15.589 14 15.5701V14.3316C14 13.0364 12.9926 11.9864 11.75 11.9864H11.4091C11.3828 11.9864 11.3566 11.9908 11.3315 11.9993L10.466 12.2939C8.70119 12.8945 6.79881 12.8945 5.03398 12.2939L4.16847 11.9993C4.14342 11.9908 4.11722 11.9864 4.09087 11.9864H3.75ZM0 14.3316C0 12.1729 1.67893 10.423 3.75 10.423H4.09087C4.27536 10.423 4.45869 10.4534 4.63407 10.5131L5.49959 10.8076C6.96187 11.3053 8.53813 11.3053 10.0004 10.8076L10.8659 10.5131C11.0413 10.4534 11.2246 10.423 11.4091 10.423H11.75C13.8211 10.423 15.5 12.1729 15.5 14.3316V15.5701C15.5 16.3552 14.9541 17.0246 14.2107 17.1511C9.9319 17.8793 5.5681 17.8793 1.28927 17.1511C0.545884 17.0246 0 16.3552 0 15.5701V14.3316Z" fill="#4950A2"></path></svg>