<svg xmlns="http://www.w3.org/2000/svg" width="18" height="22" viewBox="0 0 18 22" fill="none"><path fill-rule="evenodd" clip-rule="evenodd" d="M12.0362 6.48274C12.3291 6.78802 12.3291 7.28298 12.0362 7.58827L8.53621 11.2363C8.24332 11.5416 7.76845 11.5416 7.47555 11.2363L5.47555 9.15171C5.18266 8.84643 5.18266 8.35147 5.47555 8.04619C5.76845 7.74091 6.24332 7.74091 6.53621 8.04619L8.00588 9.57802L10.9756 6.48274C11.2684 6.17746 11.7433 6.17746 12.0362 6.48274Z" fill="#4950A2"></path><path fill-rule="evenodd" clip-rule="evenodd" d="M0.0302477 7.9286C0.384575 3.44817 3.97673 0 8.28992 0H8.72186C13.035 0 16.6272 3.44817 16.9815 7.9286C17.1719 10.3354 16.4586 12.7253 14.9919 14.5948L10.1989 20.7046C9.32386 21.8199 7.68791 21.8199 6.81291 20.7046L2.01985 14.5948C0.55319 12.7253 -0.160091 10.3354 0.0302477 7.9286ZM8.28992 1.56345C4.75738 1.56345 1.81537 4.38753 1.52518 8.05704C1.36676 10.0602 1.96041 12.0492 3.18107 13.6052L7.97413 19.7149C8.24896 20.0652 8.76281 20.0652 9.03764 19.7149L13.8307 13.6052C15.0514 12.0492 15.645 10.0602 15.4866 8.05704C15.1964 4.38753 12.2544 1.56345 8.72186 1.56345H8.28992Z" fill="#4950A2"></path></svg>