<svg xmlns="http://www.w3.org/2000/svg" width="14" height="22" viewBox="0 0 14 22" fill="none"><path fill-rule="evenodd" clip-rule="evenodd" d="M13.5005 9.06997L13.494 9.31283L13.5005 9.56999L13.4944 9.81322L13.5005 10.07L13.4946 10.3149L13.5005 10.57L13.3381 17.673C13.2996 19.3583 12.0178 20.7539 10.3419 20.9354C7.95447 21.194 5.5461 21.194 3.15868 20.9354C1.48276 20.7539 0.200998 19.3583 0.162471 17.673L8.91853e-05 10.57L0.00595982 10.3132L0.000107326 10.07L0.00626173 9.81423L5.77564e-05 9.56999L0.00656169 9.31394L0 9.06997L0.164005 2.97205C0.166293 2.88698 0.172273 2.80278 0.181794 2.71963L0.185524 2.68447L0.188482 2.65613C0.269093 1.83203 0.725774 1.11327 1.3913 0.681936C1.44095 0.648915 1.49177 0.617468 1.54368 0.587669C1.59446 0.557617 1.6463 0.529115 1.69912 0.502229C2.02571 0.329865 2.39021 0.218146 2.77821 0.182431C5.42066 -0.0608104 8.07988 -0.0608102 10.7223 0.182431C11.1097 0.21809 11.4737 0.329509 11.7999 0.501405C11.8527 0.528251 11.9045 0.556715 11.9553 0.586728C12.0089 0.617418 12.0613 0.649862 12.1124 0.683978C12.7744 1.11434 13.2291 1.82937 13.3114 2.64933L13.3192 2.72363C13.3285 2.80548 13.3343 2.88834 13.3365 2.97206L13.5005 9.06997ZM11.8245 2.89067L11.9815 9.75736L11.8543 14.4876C11.8257 15.5509 11.0066 16.425 9.94732 16.5225C7.82045 16.7183 5.68009 16.7183 3.55322 16.5225C2.49395 16.425 1.67485 15.5509 1.64625 14.4876L1.51905 9.75794L1.67604 2.89067C1.67638 2.8759 1.67699 2.86119 1.67788 2.84655C1.73736 2.44427 1.97049 2.09702 2.30104 1.88616C2.42626 1.82088 2.5652 1.77759 2.713 1.76158C5.39668 1.47095 8.10389 1.47095 10.7876 1.76158C10.9353 1.77758 11.0742 1.82084 11.1994 1.88608C11.5301 2.09699 11.7633 2.44441 11.8227 2.84688C11.8236 2.86141 11.8242 2.87601 11.8245 2.89067ZM6.75031 20.27C7.57873 20.27 8.25031 19.5984 8.25031 18.77C8.25031 17.9416 7.57873 17.27 6.75031 17.27C5.92188 17.27 5.25031 17.9416 5.25031 18.77C5.25031 19.5984 5.92188 20.27 6.75031 20.27Z" fill="#4950A2"></path></svg>