<svg xmlns="http://www.w3.org/2000/svg" width="20" height="20" viewBox="0 0 20 20" fill="none"><path fill-rule="evenodd" clip-rule="evenodd" d="M9.75 1.5C6.50862 1.5 3.99399 3.53002 3.56483 6H5.75C6.16421 6 6.5 6.33579 6.5 6.75V13.75C6.5 14.1642 6.16421 14.5 5.75 14.5H2.75C1.23122 14.5 0 13.2688 0 11.75V8.75C0 7.47836 0.863115 6.40832 2.03547 6.09374C2.41693 2.58959 5.8238 0 9.75 0C13.6762 0 17.0831 2.58959 17.4645 6.09375C18.6369 6.40832 19.5 7.47836 19.5 8.75V11.75C19.5 13.0252 18.6321 14.0977 17.4547 14.4089C17.1339 16.7204 15.1498 18.5 12.75 18.5H11.6046C11.3079 19.233 10.5893 19.75 9.75 19.75C8.64543 19.75 7.75 18.8546 7.75 17.75C7.75 16.6454 8.64543 15.75 9.75 15.75C10.5893 15.75 11.3079 16.267 11.6046 17H12.75C14.2868 17 15.5745 15.9334 15.9131 14.5H13.75C13.3358 14.5 13 14.1642 13 13.75V6.75C13 6.33579 13.3358 6 13.75 6H15.9352C15.506 3.53002 12.9914 1.5 9.75 1.5ZM2.75 7.5C2.05964 7.5 1.5 8.05964 1.5 8.75V11.75C1.5 12.4404 2.05964 13 2.75 13H5V7.5H2.75ZM18 8.75C18 8.05964 17.4404 7.5 16.75 7.5H14.5V13H16.75C17.4404 13 18 12.4404 18 11.75V8.75Z" fill="#4950A2"></path></svg>